<?xml version="1.0" encoding="utf-8"?>
<!-- Generator: Adobe Illustrator 22.0.0, SVG Export Plug-In . SVG Version: 6.00 Build 0)  -->
<svg version="1.1" id="Layer_1" xmlns="http://www.w3.org/2000/svg" xmlns:xlink="http://www.w3.org/1999/xlink" x="0px" y="0px"
	 viewBox="0 0 432 288" style="enable-background:new 0 0 432 288;" xml:space="preserve">
<style type="text/css">
	.st0{fill:#FFFFFF;}
</style>
<g>
	<path class="st0" d="M61.1,105.7c-4.2-2.9-7-2.5-10.7-1.5c-8.6,2.3-17.2,0.7-25.1-3c-2-0.9-4-4.4-3.9-6.6c0.1-4.3,1.4-9.4,6.2-10.6
		c7.3-1.9,14.8-3,22.3-4c3.6-0.5,5.5,2.2,5.9,5.7c0.5,3.9,0.8,7.9,1.3,11.8c5.8,1.2,5.7,1.2,7.8-4c4.4-11.5,8.7-23.1,13.5-34.4
		c3.7-8.6,9-16.2,15.7-22.9c6.3-6.3,14.1-8.5,22.6-9.6c45.6-5.9,91.4-7.6,137.3-5.1c20.4,1.1,40.7,3.7,61.1,5.6
		c9.6,0.9,17,5.6,23.1,12.7c8.6,9.9,13.9,21.6,18.5,33.7c2.6,6.7,5.1,13.4,7.2,20.2c1.3,4.2,3.5,5.5,7.8,4c0.5-4.1,1-8.3,1.5-12.4
		c0.5-4,3.1-5.6,6.7-5.2c6.7,0.9,13.4,1.9,20,3.4c4.5,1,7.9,6.8,7.8,11.8c-0.1,3.5-3.2,6.8-8.3,7.8c-5.3,1.1-10.7,1.7-16.2,2.2
		c-1.8,0.2-3.9-0.1-5.4-1c-3.5-2.1-6.3-1-10.2,1.5c2.2,2.3,4,4.7,6.3,6.4c8.3,6,16.8,11.7,25.2,17.5c3.4,2.3,4.9,5.5,5.6,9.6
		c4,26.5,3.3,53,1.9,79.6c-0.4,8.4-0.8,16.7-1.2,25.1c0,0.9-0.1,1.9-0.3,2.8c-1.9,10.3-3.8,11.4-14.3,11.5
		c-20.7,0.1-41.5,0.9-62.2,1.3c-9.3,0.2-18.6,1.1-27.6-2.5c-1.9-0.7-4.2-0.5-6.3-0.4c-53.6,2.1-107.1,2.1-160.7,0.1
		c-3.4-0.1-6.8,0.9-10.1,1.4c-2.6,0.4-5.2,1.3-7.8,1.3c-16.9-0.2-33.8-0.7-50.6-1c-10.1-0.2-20.2-0.2-30.3-0.2
		c-7.1,0.1-9.4-1.4-11-8.3c-0.8-3.6-1.3-7.4-1.4-11c-0.5-25.5-1.1-51-1.1-76.5c0-8.1,1.2-16.2,2.6-24.1c0.5-2.8,2.3-6.1,4.6-7.8
		c8.2-6.3,17-11.9,25.4-18C56.7,110.6,58.6,108.1,61.1,105.7z M214.9,95.7c42.6,0.9,85.8,1.7,128.9,2.6c6,0.1,7.3-0.9,6.2-5.9
		c-3.7-17.7-10.5-34-22.8-47.5c-2.4-2.6-6.2-4.8-9.7-5.6c-8.9-1.9-18-3.3-27.2-4c-36.1-2.8-72.2-4-108.3-2.3
		c-20.9,1-41.8,3.1-62.8,4.6c-10.5,0.7-18.4,5.3-23.5,14.5c-2.1,3.7-5.1,7-6.6,10.9c-3.8,9.7-7.3,19.6-10.3,29.6
		c-1.4,4.7,0,5.9,5,5.8c0.7,0,1.3,0,2,0C128.7,97.4,171.5,96.5,214.9,95.7z M214.5,222.7c23.6-0.6,47.7-1.1,71.7-1.7
		c8.7-0.2,16.1-3.2,21.4-10.4c2.7-3.6,4.2-8,1.3-11.9c-6.1-8.2-12.6-16-23.9-17.8c-22.1-3.4-44.3-6.4-66.6-6
		c-20.6,0.4-41.1,2.6-61.6,4c-13.6,1-26.1,4.1-34.9,16.1c-4.3,5.9-5.1,10.8-0.4,16.5c5.3,6.5,12.4,9.2,20.7,9.4
		C166.3,221.5,190.2,222.1,214.5,222.7z M121.5,159.7c-1.4-1.1-2.7-2.2-4.1-3.2c-9.5-6.9-20.1-11.9-31.4-15
		c-15.1-4.2-30.3-7.7-46.2-7.5c-2.8,0-4.2,0.8-4,3.7c0.2,5-0.3,10.1,0.4,15c0.4,2.8,2,6.6,4.2,7.6c5.7,2.6,12,3.9,18.1,5.6
		c0.8,0.2,1.9-0.1,2.7-0.5c4.5-2.7,9.2-2.9,14.2-1.9c3.2,0.7,6.6,1.2,9.9,1.3c6.4,0.3,13,1,19.3,0.2
		C110.1,164.2,115.6,161.6,121.5,159.7z M392.5,133.8c-31.1,1.5-60.3,6.6-85.9,26.2c4.9,1.4,9,2.1,12.8,3.7
		c5.7,2.4,11.5,2.8,17.6,2.1c5-0.6,10-1.6,15-1.9c4.1-0.3,8.6-0.7,12.4,0.6c4,1.4,7.6,1.8,11.5,0.5c2.8-0.9,5.5-1.9,8.4-2.5
		c5-1.1,7.8-4.3,8.2-9C392.9,147.2,392.5,141,392.5,133.8z"/>
	<path class="st0" d="M23.7,255c0.3,1,0.7,1.9,1,2.9c1.9,4.9,3.6,6.1,8.9,6.2c12.1,0.1,24.2,0.1,36.3,0.2c2.1,0,4.2,0.3,6.4,0.4
		c0,2.5,0.2,4.8,0,7c-1.1,8.6-3.5,10.6-12.1,10.6c-9.7,0-19.4,0.1-29.1,0c-7.1-0.1-9.3-1.8-10.4-8.8c-1-6-1.4-12.1-2.1-18.1
		C23,255.2,23.4,255.1,23.7,255z"/>
	<path class="st0" d="M351.3,264.7c2.2-0.2,3.6-0.4,5.1-0.4c11.4-0.1,22.8-0.4,34.2-0.3c10.4,0.1,10.4,0.3,14.4-9.1
		c0.4,0,0.7,0.1,1.1,0.1c-1.1,7.2-2,14.5-3.3,21.7c-0.6,3.2-3,5.1-6.3,5.1c-12.3,0.1-24.7,0.4-37,0c-2.1-0.1-5-2.8-5.9-4.9
		C352.2,273.3,352.1,269.1,351.3,264.7z"/>
</g>
</svg>
