<?xml version="1.0" encoding="utf-8"?>
<!-- Generator: Adobe Illustrator 22.0.0, SVG Export Plug-In . SVG Version: 6.00 Build 0)  -->
<svg version="1.1" xmlns="http://www.w3.org/2000/svg" xmlns:xlink="http://www.w3.org/1999/xlink" x="0px" y="0px"
	 viewBox="0 0 432 288" style="enable-background:new 0 0 432 288;" xml:space="preserve">
<style type="text/css">
	.st0{fill:#FFFFFF;}
</style>
<g id="Layer_2">
	<g>
		<path class="st0" d="M4.3,173.7c0-26.1,0-52.1,0-78.2c1.4-2.5,2.4-5.3,4.2-7.3C13,83,19,81.1,25.9,81.1c112,0,224,0.1,336,0
			c6.5,0,12.5,0.8,18.4,3.6c3.6,1.7,7.5,2.4,11.5,2.2c5.5-0.2,11.1,0,16.6-0.1c1.7,0,2.5,0.4,3.3,2c4.9,10,9.8,19.9,14.8,29.9
			c0.3,0.7,0.8,1.3,1.2,2c0,0.1,0,0.3,0,0.4c-5.1,0-10.2,0-15.3,0.1c-1.4,0-2-0.5-2.4-1.8c-2.4-6.5-4.8-13.1-7.3-19.6
			c-0.2-0.6-0.9-1.5-1.3-1.6c-2.5-0.2-5.1-0.1-7.9-0.1c5.4,23.1,10.7,45.9,15.9,68.7c0.8,3.3,1.7,6.7,0.8,10.2
			c-2,7.8-8.6,12.6-17.6,12.6c-31.5,0-62.9,0-94.4,0c-0.8,0-1.5-0.1-2.3-0.1c1.2-21.9-16-34.4-31.4-34.5
			c-15.1-0.1-33.1,12.6-31.6,34.5c-34.3,0-68.6,0-102.9,0c1.7-19.3-13.1-33.2-28.9-34.3c-8-0.6-15.3,1.4-21.6,6.3
			c-9.2,7.1-13.1,16.6-12.3,28.2c-9.1,0-18,0-26.8,0c-0.7,0-1.5-0.4-2.2-0.7C27,183.9,15.7,178.8,4.3,173.7z M341.8,172.3
			c11.4,0,22.7,0,34,0c0-24.8,0-49.4,0-74.1c-11.4,0-22.7,0-34,0C341.8,123,341.8,147.6,341.8,172.3z M279,92.5
			c-0.1,0.4-0.3,0.6-0.3,0.8c0,12.6,0,25.2,0,37.7c0,1.2,0.5,1.5,1.5,1.5c10.8,0,21.6,0,32.4-0.1c4.1,0,6.2-2.4,6.2-6.4
			c0-9,0-18,0-27c0-4.4-2.2-6.6-6.6-6.6c-10.4,0-20.7,0-31.1,0C280.4,92.5,279.7,92.5,279,92.5z M112.9,92.6c-11.5,0-22.8,0-34,0
			c0,13.4,0,26.5,0,39.8c11.4,0,22.7,0,34,0C112.9,119,112.9,105.8,112.9,92.6z M158.8,92.6c0,0.8-0.1,1.4-0.1,2.1
			c0,11.9,0,23.7,0,35.6c0,1.8,0.5,2.3,2.3,2.3c10-0.1,20,0,30,0c0.7,0,1.4-0.1,2-0.2c0-13.4,0-26.5,0-39.8
			C181.6,92.6,170.3,92.6,158.8,92.6z M72.9,92.5c-0.9,0-1.6,0-2.3,0c-8.4,0-16.7,0-25.1,0c-4.8,0-6.9,2.1-7,7c0,8.6,0,17.3,0,25.9
			c0,5.1,2.1,7.2,7.2,7.2c8.3,0,16.6,0,24.8,0c0.7,0,1.4-0.1,2.2-0.1C72.9,119.1,72.9,106,72.9,92.5z M118.8,132.4
			c11.5,0,22.8,0,34,0c0-13.4,0-26.6,0-39.8c-11.4,0-22.7,0-34,0C118.8,105.9,118.8,119.1,118.8,132.4z M198.8,132.4
			c11.5,0,22.7,0,34,0c0-13.4,0-26.6,0-39.8c-11.4,0-22.7,0-34,0C198.8,105.9,198.8,119.1,198.8,132.4z M239,92.6
			c0,13.4,0,26.6,0,39.8c11.4,0,22.7,0,33.9,0c0-13.4,0-26.6,0-39.8C261.5,92.6,250.3,92.6,239,92.6z"/>
		<path class="st0" d="M98.1,207c-4.3-0.6-8.4-1.8-11.9-4.6c-7-5.6-9.4-15.2-5.9-23.5c3.5-8.1,12.4-13.3,20.7-12
			c9.5,1.5,16.3,8.3,17.4,17.3c1.4,11.4-6.2,21.1-17.6,22.4c-0.5,0.1-1,0.2-1.5,0.3C98.9,207,98.5,207,98.1,207z"/>
		<path class="st0" d="M263.5,207c-4.2-0.7-8.2-1.9-11.6-4.6c-6.7-5.4-9.3-15.1-5.9-23.2c3.4-8.1,12.1-13.4,20.5-12.3
			c9.1,1.1,16.4,7.9,17.7,16.6c1.8,11.5-6,21.8-17.5,23.2c-0.5,0.1-1,0.2-1.4,0.4C264.7,207,264.1,207,263.5,207z"/>
	</g>
</g>
<g id="Layer_1">
</g>
</svg>
