<?xml version="1.0" encoding="utf-8"?>
<!-- Generator: Adobe Illustrator 22.0.0, SVG Export Plug-In . SVG Version: 6.00 Build 0)  -->
<svg version="1.1" id="_x31_" xmlns="http://www.w3.org/2000/svg" xmlns:xlink="http://www.w3.org/1999/xlink" x="0px" y="0px"
	 viewBox="0 0 800 800" style="enable-background:new 0 0 800 800;" xml:space="preserve">
<style type="text/css">
	.st0{fill-rule:evenodd;clip-rule:evenodd;fill:#FFFFFF;}
</style>
<path class="st0" d="M77,417.4c-5.6-26.7-46.7-102.4-50.7-131c7.9-2.9,12.2-3,27.3-3.4c23.7,13.1,66.4,68.6,101.6,86.2
	c30.1,11.1,30.6,9.8,80.9,16.4c49.4-2.2,135.8-23,199.8-33c64-10.1,142.5-23,183.9-28.5c41.5-5.5,44.2-6.5,64.7-4.6
	c17.4,1.7,66.6,16.2,79,30.3c4.3,4.9,6,6.6,0,12.9c-2.9,3-9,6.7-15.5,10.1c-5.5,2.9-11.3,5.5-15.6,7.7c-1.2,0.7-2.5,1.3-3.9,2.1
	c1.4,2.2,3.5,6.4,1.8,8.5c-4,2.8-13.6,6.6-22.9,9.7c-0.1,1.2,0,2.5-0.2,3.6c1.2,0.1,3.3,0.3,5.1,3.1c1.3,2.1,1.7,5.7,0.6,8.1
	c-1.3,3.2-5.9,4.8-9.7,3.1c-1.6,0.3-3.4,1-5.6-0.4c-1.9-1.3-2.8-3.3-3.3-5.5c-0.3-3,0.3-5.3,2.5-7.2c1.7-1.3,3.7-1.3,5.8-1.1
	c0.2-0.9,0.3-1.6,0.2-2.3c-6.3,1.9-11.9,3.2-14.8,3.3c-4.1,0.1-5-4.6-5.4-7.4c-18.4,3.7-86.8,14.4-108.7,19.1
	c-1.5,0.4-3,0.7-3.4,0.9c0.6,2.3,1.4,9.6-0.1,16.1c-0.1,0.6-0.2,1.3-0.4,2c-2.2,0.7-5.5,1.8-9.4,2.9c-5.5,1.8-12.5,3.5-19.7,5.1
	c-13.4,3.1-27.8,5.5-35,6.6c-3.2,0.6-5.2,1.4-6.7-0.4c-2.1-2.1,0.2-5.5-13.3-5.4c-4.1-1.8-4.1-9.4-4.7-11.1c-1.4,0.1-5,1-6.4,1.3
	c-12.2,2-29.7,5-50,8.6l2.4-0.4l0,0c0.8,2.3,0.8,5.9-0.6,8.9c1.9,0.2,5.3,0.7,7.8,4.6c2.2,3.2,2.8,7.8,0.7,12.3
	c-2.4,4.6-8.7,7.4-14.2,4.7c-2.6,0.5-5.2,1.3-8.7-0.8c-6.1-4.3-6.7-14.3-1.1-19.3c2.5-1.7,5.8-2,8.8-1.7c1.1-3.2,0.3-5-1.4-7.4
	c-7.4,1.3-15,2.8-22.8,4.1c-2.9,0.4-5.7,0.9-8.8,1.4c-0.1,1.9,0,4-0.3,5.7c1.9,0.3,4.8,0.7,7.5,4.6c2,3,2.4,8.2,0.7,12
	c-1.8,4.5-8.6,7-14,4.5c-2.5,0.4-4.9,1.3-8.4-0.8c-2.8-2-4-4.7-4.6-8c-0.7-4.3,0.4-7.7,3.6-10.5c2.4-2,5.4-2,8.5-1.6
	c0.7-2,0.6-3.4,0-4.8l0,0c-28.8,4.8-63.5,11.6-90.6,14c-32.1,3-49.5,3.2-86.2,0.8c-36.7-2.4-106.7-8.9-133.2-16.4
	c-0.4-0.3-0.8-0.7-1.2-1c0.3,0.2,0.6,0.5,0.9,0.8l0,0c25,3.2,103.8-11.1,132.7-15.4c47.8-7.9,95.6-15.7,143.3-23.7
	c35.7-5.8,71.4-12.6,107.1-18.5c54.2-9.8,108.3-17.8,162.4-27.1c38.9-6.4,77.4-11.8,116.6-17.2c-18.7-2.5-40-3.6-63.5-2
	c-64.2,7-213,31.4-313.9,49.6c-41.2,7-82.2,13.5-123.4,20.6c-37.7,5.4-75.5,12.1-113.4,17.5c-16.9,2.8-44.5,8.2-57.2,5.4
	c-3.3-5.5-4.8-10.9-4-14.4C63.4,420.2,71,421.3,77,417.4L77,417.4z M700.8,327.4c-2.6,1.3,2.6,13.4,6.9,13.5
	c10.7,0.8,21.8,2.1,32.6,2.3C754.1,344.6,718.1,327.6,700.8,327.4L700.8,327.4z M388.4,459.9c2.5,0,4.5,3.2,4.4,7.2
	c0,4-2.1,7.3-4.6,7.3c-2.4,0-4.4-3.3-4.4-7.2C383.8,463.2,385.9,459.9,388.4,459.9L388.4,459.9z M376.9,458c-1.2,0-3.3,0.2-5,2.1
	c-2.6,3.9-2.1,9.2-0.2,11.9c1.9,3,4.1,3.4,5.9,3.1C370.5,472.6,369.6,460.9,376.9,458L376.9,458z M708.4,407c1.8,0,3.1,2.2,3.1,5
	c0,2.6-1.4,4.8-3.2,4.8c-1.6,0-3.1-2.2-3-4.8C705.3,409.2,706.7,407,708.4,407L708.4,407z M700.5,405.6c-0.8,0-2.2,0.2-3.3,1.5
	c-1.9,2.6-1.6,6.3-0.2,8.1c1.3,2,2.8,2.3,4.1,2.1C696.2,415.6,695.5,407.7,700.5,405.6L700.5,405.6z M430.7,455.9
	c2.4,0,4.5,3.3,4.4,7.3c0,3.9-2.1,7.2-4.6,7.2c-2.4,0-4.5-3.2-4.4-7.2C426.1,459.2,428.2,456,430.7,455.9L430.7,455.9z M416.9,453.9
	c-1.1,0-3.2,0.3-4.8,2.2c-2.8,3.7-2.1,9.2-0.2,11.8c1.9,3,4,3.4,5.8,3.2C410.7,468.5,409.8,456.9,416.9,453.9L416.9,453.9z
	 M627.9,351.2l2.3-0.3c1.2-0.1,2.1,0.7,2.2,1.8l0.3,6.5c0,1.1-0.9,2.2-2,2.3l-2.3,0.3c-1.1,0.2-2.1-0.7-2.1-1.8l-0.3-6.5
	C626,352.4,626.8,351.4,627.9,351.2L627.9,351.2z M374.5,393.7l2.3-0.3c1.1-0.1,2.1,0.7,2.1,1.8l0.3,6.5c0.1,1.1-0.8,2.2-1.9,2.3
	l-2.3,0.3c-1.2,0.2-2.1-0.5-2.2-1.8l-0.3-6.4C372.6,394.9,373.5,393.9,374.5,393.7L374.5,393.7z M390.7,391.1l2.3-0.3
	c1.1-0.2,2.1,0.6,2.2,1.8l0.2,6.4c0.1,1.1-0.8,2.2-1.9,2.3l-2.3,0.3c-1.2,0.2-2.1-0.5-2.2-1.8l-0.3-6.4
	C388.8,392.2,389.6,391.3,390.7,391.1L390.7,391.1z M406.1,388.1l2.3-0.3c1.2-0.1,2.1,0.7,2.2,1.8l0.3,6.5c0,1.1-0.9,2.2-2,2.3
	l-2.3,0.3c-1.1,0.1-2.1-0.7-2.1-1.8l-0.3-6.5C404.2,389.3,405,388.3,406.1,388.1L406.1,388.1z M423.1,385.1l2.3-0.3
	c1.1-0.2,2.1,0.7,2.2,1.8l0.2,6.5c0.1,1.1-0.8,2.1-1.9,2.3l-2.3,0.3c-1.1,0.1-2.1-0.7-2.2-1.8l-0.2-6.5
	C421.1,386.3,422,385.2,423.1,385.1L423.1,385.1z M358.7,396l2.4-0.3c1.1-0.1,2,0.7,2.1,1.8l0.3,6.5c0,1.1-0.9,2.1-2,2.3l-2.3,0.3
	c-1.1,0.1-2.1-0.7-2.1-1.8l-0.3-6.5C356.7,397.2,357.6,396.1,358.7,396L358.7,396z M438.2,382l2.3-0.3c1.1-0.1,2.1,0.7,2.1,1.8
	l0.3,6.5c0.1,1.1-0.8,2.2-1.9,2.3l-2.4,0.3c-1.1,0.2-2-0.6-2.1-1.8l-0.3-6.4C436.2,383.2,437.1,382.2,438.2,382L438.2,382z
	 M452.8,379.5l2.3-0.3c1.2-0.2,2.1,0.6,2.2,1.8l0.3,6.4c0,1.1-0.9,2.2-2,2.3l-2.3,0.3c-1.1,0.2-2.1-0.6-2.1-1.8l-0.3-6.4
	C450.8,380.6,451.7,379.6,452.8,379.5L452.8,379.5z M467.6,376.9l2.3-0.3c1.1-0.1,2.1,0.7,2.2,1.8l0.2,6.5c0.1,1.1-0.8,2.2-1.9,2.3
	l-2.3,0.3c-1.1,0.2-2.1-0.7-2.2-1.8l-0.2-6.5C465.6,378.2,466.5,377.2,467.6,376.9L467.6,376.9z M482.6,374.5l2.3-0.3
	c1.1-0.2,2.1,0.7,2.1,1.8l0.3,6.5c0.1,1.1-0.8,2.1-1.9,2.3l-2.4,0.3c-1.1,0.1-2-0.7-2.1-1.8l-0.3-6.5
	C480.7,375.7,481.5,374.6,482.6,374.5L482.6,374.5z M497.1,372.1l2.3-0.3c1.1-0.2,2.1,0.7,2.1,1.8l0.3,6.5c0.1,1.1-0.8,2.1-1.9,2.3
	l-2.3,0.3c-1.2,0.1-2.1-0.6-2.2-1.8l-0.3-6.5C495.1,373.3,496,372.2,497.1,372.1L497.1,372.1z M268.8,411.4l2.3-0.3
	c1.1-0.1,2.1,0.7,2.2,1.8l0.2,6.5c0.1,1.1-0.8,2.2-1.9,2.3l-2.3,0.3c-1.1,0.1-2.1-0.7-2.2-1.8l-0.2-6.5
	C266.8,412.6,267.7,411.6,268.8,411.4L268.8,411.4z M286.8,408.4l2.4-0.3c1.1-0.2,2,0.7,2.1,1.8l0.3,6.5c0,1.1-0.9,2.1-2,2.3
	l-2.3,0.3c-1.1,0.1-2.1-0.7-2.1-1.8l-0.3-6.5C284.9,409.6,285.7,408.5,286.8,408.4L286.8,408.4z M306.4,405l2.3-0.3
	c1.1-0.1,2.1,0.7,2.2,1.8l0.2,6.5c0.1,1.1-0.8,2.2-1.9,2.3l-2.3,0.3c-1.1,0.1-2.1-0.7-2.2-1.8l-0.2-6.5
	C304.5,406.2,305.3,405.1,306.4,405L306.4,405z M325.6,401.6l2.4-0.3c1.1-0.1,2,0.7,2.1,1.8l0.3,6.5c0,1.1-0.9,2.2-2,2.3l-2.3,0.3
	c-1.1,0.2-2.1-0.7-2.1-1.8l-0.3-6.5C323.6,402.8,324.5,401.8,325.6,401.6L325.6,401.6z M342.5,399l2.4-0.3c1.1-0.1,2,0.7,2.1,1.8
	l0.3,6.5c0,1.1-0.9,2.2-2,2.3l-2.3,0.3c-1.1,0.2-2.1-0.7-2.1-1.8l-0.3-6.5C340.6,400.2,341.4,399.2,342.5,399L342.5,399z
	 M511.3,369.8l2.3-0.3c1.1-0.1,2.1,0.7,2.1,1.8l0.3,6.5c0.1,1.1-0.8,2.2-1.9,2.3l-2.4,0.3c-1.1,0.1-2-0.7-2.1-1.8l-0.3-6.5
	C509.3,371,510.2,370,511.3,369.8L511.3,369.8z M526.5,366.9l2.3-0.3c1.1-0.2,2.1,0.7,2.2,1.8l0.3,6.5c0,1.1-0.9,2.1-2,2.3l-2.3,0.3
	c-1.1,0.1-2.1-0.7-2.2-1.8l-0.2-6.5C524.5,368.1,525.4,367,526.5,366.9L526.5,366.9z M541.3,364.7l2.3-0.3c1.1-0.1,2.1,0.7,2.2,1.8
	l0.2,6.5c0.1,1.1-0.8,2.1-1.9,2.3l-2.3,0.3c-1.1,0.1-2.1-0.7-2.2-1.8l-0.2-6.5C539.3,365.9,540.2,364.8,541.3,364.7L541.3,364.7z
	 M555.7,362.5l2.4-0.3c1.1-0.1,2,0.7,2.1,1.8l0.3,6.5c0,1.1-0.9,2.2-2,2.3l-2.3,0.3c-1.1,0.2-2.1-0.7-2.1-1.8l-0.3-6.5
	C553.7,363.8,554.6,362.7,555.7,362.5L555.7,362.5z M570.6,360.4l2.3-0.3c1.1-0.2,2.1,0.6,2.2,1.8l0.2,6.4c0.1,1.2-0.8,2.2-1.9,2.3
	l-2.3,0.4c-1.1,0.1-2.1-0.7-2.2-1.8l-0.2-6.5C568.6,361.7,569.5,360.6,570.6,360.4L570.6,360.4z M584.8,358l2.3-0.3
	c1.1-0.1,2.1,0.6,2.1,1.8l0.3,6.5c0.1,1.1-0.8,2.2-1.9,2.3l-2.3,0.3c-1.1,0.1-2.1-0.6-2.2-1.7l-0.3-6.5
	C582.8,359.2,583.7,358.2,584.8,358L584.8,358z M599.5,355.4l2.4-0.3c1.1-0.1,2,0.7,2.1,1.8l0.3,6.5c0,1.1-0.9,2.1-2,2.3l-2.3,0.3
	c-1.1,0.1-2.1-0.7-2.1-1.8l-0.3-6.5C597.6,356.6,598.4,355.5,599.5,355.4L599.5,355.4z M613.7,353.3l2.4-0.3c1.1-0.1,2,0.7,2.1,1.8
	l0.3,6.5c0,1.1-0.9,2.2-2,2.3l-2.3,0.3c-1.1,0.1-2.1-0.7-2.1-1.8l-0.3-6.5C611.8,354.5,612.6,353.5,613.7,353.3L613.7,353.3z"/>
</svg>
