<?xml version="1.0" encoding="utf-8"?>
<!-- Generator: Adobe Illustrator 22.0.0, SVG Export Plug-In . SVG Version: 6.00 Build 0)  -->
<svg version="1.1" xmlns="http://www.w3.org/2000/svg" xmlns:xlink="http://www.w3.org/1999/xlink" x="0px" y="0px"
	 viewBox="0 0 432 288" style="enable-background:new 0 0 432 288;" xml:space="preserve">
<style type="text/css">
	.st0{fill:#FFFFFF;}
</style>
<g id="Layer_2">
	<g>
		<path class="st0" d="M341.3,283.2c-76.5,0-153,0-229.4,0c0-4.4,0-8.8,0-13.2c1.9,0,3.6,0,5.3,0c0-75.3,0-150.5,0-225.8
			c-1.8,0-3.5,0-5.3,0c0-4.4,0-8.7,0-13.1c76.5,0,152.9,0,229.3,0c0,4.4,0,8.7,0,13.1c-1.7,0-3.4,0-5.1,0c0,75.3,0,150.5,0,225.8
			c1.7,0,3.4,0,5.2,0C341.3,274.5,341.3,278.9,341.3,283.2z M228.8,270c9.3,0,18.5,0,27.6,0c0-13.2,0-26.4,0-39.5
			c-9.2,0-18.4,0-27.6,0C228.8,243.6,228.8,256.8,228.8,270z M198.9,230.4c0,13.3,0,26.4,0,39.5c9.2,0,18.4,0,27.5,0
			c0-13.2,0-26.4,0-39.5C217.3,230.4,208.2,230.4,198.9,230.4z M212.4,151c0-3.1,0-6.2,0-9.2c0-1-0.3-1.3-1.3-1.3
			c-6.2,0-12.3,0-18.5,0c-1,0-1.3,0.2-1.3,1.3c0,6.2,0,12.4,0,18.6c0,0.9,0.3,1.2,1.2,1.2c6.2,0,12.4,0,18.6,0c1,0,1.3-0.4,1.3-1.3
			C212.3,157.1,212.4,154,212.4,151z M191.4,193c0,7.1,0,14,0,20.9c7,0,13.9,0,20.8,0c0-0.3,0.1-0.5,0.1-0.6c0-6.4,0-12.9,0-19.3
			c0-0.9-0.5-0.9-1.1-0.9c-3.9,0-7.8,0-11.6,0C196.9,193,194.3,193,191.4,193z M191.4,187.6c0.3,0,0.5,0.1,0.6,0.1
			c6.4,0,12.9,0,19.3,0c0.9,0,1-0.4,1-1.2c0-6.2,0-12.4,0-18.6c0-0.9-0.2-1.2-1.2-1.2c-6.2,0-12.4,0-18.6,0c-0.4,0-0.7,0-1.1,0.1
			C191.4,173.7,191.4,180.6,191.4,187.6z M216.3,161.4c0.3,0,0.5,0.1,0.7,0.1c6.4,0,12.8,0,19.2,0c0.9,0,1-0.5,1-1.2
			c0-6.2,0-12.5,0-18.7c0-0.3-0.1-0.7-0.1-1c-7,0-13.9,0-20.8,0C216.3,147.5,216.3,154.4,216.3,161.4z M191.5,104.2
			c0,0.3-0.1,0.5-0.1,0.7c0,6.4,0,12.8,0,19.2c0,1,0.5,1,1.2,1c6.2,0,12.3,0,18.5,0c1.2,0,1.4-0.4,1.4-1.4c0-6.1,0-12.2,0-18.2
			c0-0.4,0-0.8-0.1-1.2C205.3,104.2,198.4,104.2,191.5,104.2z M212.2,72.5c0-7,0-13.9,0-20.8c-7,0-13.9,0-20.8,0c0,7,0,13.9,0,20.8
			C198.4,72.5,205.3,72.5,212.2,72.5z M241.2,161.4c0.3,0,0.4,0.1,0.6,0.1c6.4,0,12.9,0,19.3,0c1,0,0.9-0.6,0.9-1.2
			c0-6.2,0-12.3,0-18.5c0-1.1-0.3-1.4-1.3-1.3c-6.1,0-12.2,0-18.4,0c-0.4,0-0.8,0-1.2,0.1C241.2,147.5,241.2,154.4,241.2,161.4z
			 M191.4,98.6c0.3,0,0.5,0.1,0.7,0.1c6.4,0,12.9,0,19.3,0c1,0,1-0.5,1-1.2c0-6.2,0-12.3,0-18.5c0-1.1-0.4-1.3-1.4-1.3
			c-6.1,0-12.2,0-18.4,0c-1.1,0-1.3,0.3-1.3,1.4c0,6.1,0,12.2,0,18.4C191.3,97.8,191.4,98.2,191.4,98.6z M237.1,98.7
			c0-7,0-13.9,0-20.8c-0.3,0-0.4-0.1-0.6-0.1c-6.4,0-12.9,0-19.3,0c-1,0-1,0.5-1,1.2c0,6.2,0,12.5,0,18.7c0,0.3,0.1,0.6,0.1,1
			C223.2,98.7,230.1,98.7,237.1,98.7z M241.2,77.8c0,7,0,13.9,0,20.9c7,0,13.8,0,20.8,0c0-0.2,0.1-0.4,0.1-0.5c0-6.5,0-13,0-19.5
			c0-0.9-0.5-0.8-1.1-0.8c-3.4,0-6.7,0-10.1,0C247.7,77.8,244.5,77.8,241.2,77.8z M216.3,104.2c0,0.3-0.1,0.4-0.1,0.6
			c0,6.4,0,12.9,0,19.3c0,1,0.5,1,1.2,0.9c6.2,0,12.4,0,18.6,0c0.3,0,0.7,0,1.1-0.1c0-7,0-13.9,0-20.8
			C230.1,104.2,223.2,104.2,216.3,104.2z M241.2,124.9c0.2,0,0.4,0.1,0.5,0.1c6.5,0,12.9,0,19.4,0c1,0,0.9-0.6,0.9-1.2
			c0-6.2,0-12.4,0-18.6c0-0.3,0-0.7-0.1-1.1c-7,0-13.9,0-20.8,0C241.2,111.1,241.2,118,241.2,124.9z M216.3,72.4c7,0,13.9,0,20.8,0
			c0-7,0-13.8,0-20.8c-7,0-13.9,0-20.8,0C216.3,58.6,216.3,65.4,216.3,72.4z M241.2,72.4c7,0,13.9,0,20.8,0c0-7,0-13.8,0-20.7
			c-7,0-13.8,0-20.8,0C241.2,58.6,241.2,65.5,241.2,72.4z M241.2,213.8c7,0,13.9,0,20.8,0c0-0.3,0.1-0.6,0.1-0.8
			c0-6.3,0-12.6,0-18.9c0-1-0.4-1.1-1.2-1.1c-6.2,0-12.5,0-18.7,0c-0.3,0-0.6,0-1,0.1C241.2,200,241.2,206.9,241.2,213.8z
			 M237.1,213.8c0-7,0-13.9,0-20.8c-0.3,0-0.4-0.1-0.6-0.1c-6.4,0-12.9,0-19.3,0c-0.8,0-1,0.3-1,1.1c0,6.3,0,12.6,0,18.8
			c0,0.3,0,0.6,0.1,1C223.2,213.8,230.1,213.8,237.1,213.8z M241.2,187.6c0.3,0,0.4,0.1,0.5,0.1c6.5,0,12.9,0,19.4,0
			c0.8,0,1-0.3,1-1.1c0-6.3,0-12.6,0-18.9c0-0.3,0-0.5-0.1-0.9c-7,0-13.9,0-20.8,0C241.2,173.8,241.2,180.7,241.2,187.6z
			 M237.1,166.8c-7,0-13.9,0-20.8,0c0,7,0,13.9,0,20.8c7,0,13.9,0,20.8,0C237.1,180.6,237.1,173.8,237.1,166.8z M149.1,147.9
			c0,0.3-0.1,0.4-0.1,0.6c0,5.3,0,10.6,0,15.9c0,0.8,0.4,1,1.1,1c5.2,0,10.4,0,15.6,0c0.3,0,0.5-0.1,0.8-0.1c0-5.8,0-11.6,0-17.4
			C160.7,147.9,155,147.9,149.1,147.9z M324.9,165.4c0-5.9,0-11.7,0-17.4c-5.9,0-11.6,0-17.5,0c0,4.9,0,9.6,0,14.4
			c0,3.1,0,3.1,3.1,3.1C315.2,165.4,320,165.4,324.9,165.4z M324.9,220.4c-0.5,0-0.8-0.1-1.2-0.1c-5,0-10,0-15,0
			c-1,0-1.4,0.2-1.4,1.3c0.1,5,0,10,0,15c0,0.4,0,0.8,0.1,1.2c5.9,0,11.6,0,17.4,0C324.9,232,324.9,226.3,324.9,220.4z M128.4,259
			c5.7,0,11.2,0,16.8,0c0.9,0,0.7-0.7,0.7-1.2c0-5,0-10.1,0-15.1c0-1-0.2-1.3-1.3-1.3c-5.1,0-10.1,0-15.2,0c-0.3,0-0.7,0-1.1,0.1
			C128.4,247.4,128.4,253.1,128.4,259z M166.5,241.5c-0.2,0-0.4-0.1-0.5-0.1c-5.4,0-10.7,0-16.1,0c-0.9,0-0.9,0.5-0.9,1.1
			c0,5.2,0,10.3,0,15.5c0,0.3,0.1,0.6,0.1,0.9c5.9,0,11.6,0,17.4,0C166.5,253,166.5,247.3,166.5,241.5z M166.5,126.8
			c-0.3,0-0.4-0.1-0.6-0.1c-5.3,0-10.6,0-15.9,0c-0.9,0-0.9,0.4-0.9,1.1c0,5.2,0,10.3,0,15.5c0,0.3,0.1,0.6,0.1,0.9
			c5.9,0,11.6,0,17.4,0C166.5,138.3,166.5,132.6,166.5,126.8z M145.8,112.8c0-0.3,0.1-0.4,0.1-0.6c0-5.3,0-10.6,0-15.9
			c0-1-0.5-1-1.2-1c-5.1,0-10.2,0-15.3,0c-0.3,0-0.6,0.1-1,0.1c0,5.8,0,11.6,0,17.4C134.2,112.8,139.9,112.8,145.8,112.8z
			 M166.5,95.3c-0.5,0-0.8-0.1-1.2-0.1c-5,0-10.1,0-15.1,0c-1,0-1.3,0.3-1.3,1.3c0,5,0,10.1,0,15.1c0,0.3,0,0.7,0.1,1.1
			c5.8,0,11.6,0,17.4,0C166.5,106.9,166.5,101.2,166.5,95.3z M307.4,112.7c5.9,0,11.7,0,17.5,0c0-5.8,0-11.6,0-17.5
			c-0.5,0-0.9,0-1.4,0c-4.1,0-8.2,0-12.4,0c-1.2,0-2.9-0.4-3.4,0.2c-0.6,0.7-0.3,2.3-0.3,3.5C307.4,103.6,307.4,108.1,307.4,112.7z
			 M128.4,144.3c5.5,0,10.9,0,16.3,0c1,0,1.2-0.3,1.2-1.2c0-5,0-10.1,0-15.1c0-1-0.3-1.3-1.3-1.3c-5,0-10.1,0-15.1,0
			c-0.4,0-0.8,0-1.2,0C128.4,132.6,128.4,138.4,128.4,144.3z M307.4,258.9c5.9,0,11.7,0,17.5,0c0-5.9,0-11.6,0-17.5
			c-5.6,0-11.2,0-16.7,0c-0.7,0-0.7,0.4-0.7,0.9c0,1.8,0,3.6,0,5.4C307.4,251.4,307.4,255.1,307.4,258.9z M324.9,126.8
			c-0.2,0-0.4-0.1-0.5-0.1c-5.4,0-10.7,0-16.1,0c-0.9,0-0.9,0.5-0.9,1.1c0,5.2,0,10.3,0,15.5c0,0.3,0.1,0.6,0.1,0.9
			c5.9,0,11.6,0,17.4,0C324.9,138.3,324.9,132.6,324.9,126.8z M286.7,165.3c0.5,0,0.8,0.1,1.2,0.1c5,0,10,0,15,0
			c1.1,0,1.3-0.3,1.3-1.4c0-5,0-10,0-15c0-0.4,0-0.8-0.1-1.2c-5.9,0-11.6,0-17.4,0C286.7,153.7,286.7,159.4,286.7,165.3z
			 M304.1,112.8c0-0.3,0.1-0.5,0.1-0.7c0-5.3,0-10.6,0-15.8c0-0.8-0.3-1-1.1-1c-5.2,0-10.3,0-15.5,0c-0.3,0-0.6,0.1-0.9,0.1
			c0,5.9,0,11.6,0,17.4C292.6,112.8,298.3,112.8,304.1,112.8z M166.5,74.3c-0.3,0-0.4-0.1-0.6-0.1c-5.3,0-10.6,0-15.9,0
			c-0.9,0-1,0.5-1,1.2c0,5.1,0,10.1,0,15.2c0,0.3,0,0.7,0.1,1.1c5.9,0,11.6,0,17.4,0C166.5,85.9,166.5,80.1,166.5,74.3z M128.4,91.6
			c5.9,0,11.6,0,17.4,0c0-0.3,0.1-0.4,0.1-0.6c0-5.3,0-10.6,0-15.8c0-0.9-0.4-1-1.2-1c-5.1,0-10.2,0-15.4,0c-0.3,0-0.6,0.1-1,0.1
			C128.4,80.1,128.4,85.8,128.4,91.6z M324.9,53.3c-5.9,0-11.7,0-17.4,0c0,5.8,0,11.6,0,17.3c5.9,0,11.6,0,17.4,0
			C324.9,64.8,324.9,59.1,324.9,53.3z M128.4,168.9c0,5.8,0,11.6,0,17.4c0.2,0,0.4,0.1,0.6,0.1c5.3,0,10.6,0,16,0c1,0,1-0.5,1-1.2
			c0-5,0-10.1,0-15.1c0-1-0.3-1.3-1.3-1.3c-5,0-10.1,0-15.1,0C129.1,168.9,128.8,168.9,128.4,168.9z M166.5,186.4
			c0-5.9,0-11.7,0-17.4c-5.8,0-11.6,0-17.4,0c0,5.8,0,11.6,0,17.4C155,186.4,160.7,186.4,166.5,186.4z M286.7,186.4
			c0.5,0,0.8,0.1,1.2,0.1c5,0,10,0,15,0c1,0,1.3-0.3,1.3-1.3c0-5,0-10.1,0-15.1c0-0.4,0-0.7-0.1-1.1c-5.8,0-11.6,0-17.4,0
			C286.7,174.8,286.7,180.5,286.7,186.4z M324.9,169c-5.9,0-11.6,0-17.5,0c0,0.3,0,0.6,0,0.8c0,5.2,0,10.4,0,15.6
			c0,0.9,0.3,1.1,1.1,1.1c5.2,0,10.3,0,15.5,0c0.3,0,0.6-0.1,0.9-0.1C324.9,180.5,324.9,174.8,324.9,169z M286.8,53.3
			c0,0.3-0.1,0.4-0.1,0.5c0,5.4,0,10.7,0,16.1c0,0.9,0.4,0.9,1.1,0.9c5.1,0,10.2,0,15.2,0c1.1,0,1.3-0.4,1.2-1.3c0-5,0-10,0-15
			c0-0.4,0-0.8-0.1-1.2C298.3,53.3,292.6,53.3,286.8,53.3z M128.3,53.3c0,5.5,0,10.9,0,16.2c0,1.1,0.4,1.3,1.4,1.3c5,0,9.9,0,14.9,0
			c1,0,1.4-0.2,1.4-1.3c-0.1-5,0-10,0-15c0-0.4,0-0.8-0.1-1.2C139.9,53.3,134.2,53.3,128.3,53.3z M128.4,216.8
			c0.3,0,0.4,0.1,0.6,0.1c5.3,0,10.6,0,16,0c1,0,1-0.5,1-1.2c0-5,0-10.1,0-15.1c0-1-0.4-1.3-1.3-1.3c-5,0-10.1,0-15.1,0
			c-0.3,0-0.7,0-1.1,0.1C128.4,205.2,128.4,211,128.4,216.8z M166.5,199.5c-0.2-0.1-0.3-0.1-0.4-0.1c-5.4,0-10.9,0-16.3,0
			c-0.9,0-0.8,0.5-0.8,1.1c0,5.1,0,10.2,0,15.3c0,0.9,0.3,1.2,1.2,1.2c5.1,0,10.2,0,15.3,0c0.9,0,1.1-0.3,1.1-1.2
			c0-5.1,0-10.2,0-15.3C166.6,200.1,166.6,199.8,166.5,199.5z M286.8,199.4c0,0.2-0.1,0.4-0.1,0.5c0,5.4,0,10.7,0,16.1
			c0,0.9,0.5,0.9,1.1,0.9c5.1,0,10.2,0,15.2,0c1,0,1.2-0.3,1.2-1.2c0-5,0-10.1,0-15.1c0-1-0.3-1.3-1.3-1.3c-5,0-10.1,0-15.1,0
			C287.5,199.3,287.2,199.4,286.8,199.4z M324.9,216.9c0-5.9,0-11.7,0-17.5c-5.8,0-11.6,0-17.4,0c0,0.2-0.1,0.4-0.1,0.6
			c0,5.3,0,10.6,0,16c0,1,0.5,1,1.2,1c4.6,0,9.3,0,13.9,0C323.3,216.9,324,216.9,324.9,216.9z M145.8,237.8c0.1-0.3,0.1-0.4,0.1-0.5
			c0-5.4,0-10.7,0-16.1c0-1-0.6-1-1.2-1c-5.1,0-10.1,0-15.2,0c-0.3,0-0.7,0.1-1,0.1c0,5.9,0,11.6,0,17.4
			C134.2,237.8,140,237.8,145.8,237.8z M149.1,53.3c0,0.5-0.1,0.8-0.1,1.2c0,5,0,10,0,15c0,1.1,0.3,1.4,1.3,1.4c5-0.1,10,0,15,0
			c0.4,0,0.8,0,1.2-0.1c0-5.9,0-11.6,0-17.4C160.7,53.3,154.9,53.3,149.1,53.3z M304.1,237.9c0.1-0.2,0.1-0.4,0.1-0.6
			c0-5.3,0-10.6,0-16c0-0.9-0.4-0.9-1.1-0.9c-5.1,0-10.2,0-15.2,0c-1.1,0-1.2,0.4-1.2,1.3c0,5,0,10,0,15c0,0.4,0,0.8,0.1,1.2
			C292.6,237.9,298.3,237.9,304.1,237.9z M307.5,91.7c5.9,0,11.6,0,17.4,0c0-5.8,0-11.6,0-17.4c-5.8,0-11.6,0-17.4,0
			C307.5,80.1,307.5,85.8,307.5,91.7z M304.2,91.7c0-0.4,0.1-0.8,0.1-1.1c0-5,0-10.1,0-15.1c0-1-0.3-1.3-1.3-1.3c-5,0-10,0-15,0
			c-0.4,0-0.8,0-1.2,0.1c0,5.9,0,11.6,0,17.4C292.6,91.7,298.4,91.7,304.2,91.7z M128.4,165.3c0.3,0,0.4,0.1,0.6,0.1
			c5.3,0,10.6,0,16,0c0.9,0,1-0.4,1-1.1c0-5.2,0-10.4,0-15.6c0-0.3-0.1-0.5-0.1-0.8c-5.8,0-11.6,0-17.4,0
			C128.4,153.7,128.4,159.4,128.4,165.3z M149.1,237.8c5.9,0,11.6,0,17.4,0c0-5.8,0-11.6,0-17.4c-0.4,0-0.7-0.1-1-0.1
			c-5.1,0-10.1,0-15.2,0c-1,0-1.3,0.3-1.3,1.3c0,5,0,10,0,15C149,237,149.1,237.4,149.1,237.8z M304.1,144.2c0-0.3,0.1-0.5,0.1-0.7
			c0-5.3,0-10.6,0-15.8c0-0.8-0.3-1-1.1-1c-5.2,0-10.3,0-15.5,0c-0.3,0-0.6,0.1-0.9,0.1c0,5.9,0,11.6,0,17.4
			C292.6,144.2,298.3,144.2,304.1,144.2z M304.1,258.9c0-0.3,0.1-0.5,0.1-0.7c0-5.3,0-10.6,0-15.8c0-0.8-0.3-1-1.1-1
			c-5.2,0-10.3,0-15.5,0c-0.3,0-0.6,0.1-0.9,0.1c0,5.8,0,11.6,0,17.4C292.6,258.9,298.3,258.9,304.1,258.9z"/>
		<path class="st0" d="M275.7,4.8c0.3,0.3,0.5,0.7,0.9,1c7,6.8,14,13.6,21.1,20.3c0.3,0.3,0.7,0.5,1,0.8c-0.1,0.1-0.1,0.2-0.2,0.3
			c-48,0-95.9,0-144.1,0c0.4-0.4,0.7-0.7,1-1c7-6.8,14.1-13.6,21.1-20.4c0.3-0.3,0.6-0.6,0.9-1C210.1,4.8,242.9,4.8,275.7,4.8z
			 M185.2,13.1c-0.1,0.2-0.1,0.3-0.2,0.5c0.4,0.3,0.9,0.7,1.3,1c1.8,1.2,2.3,2.7,1.6,4.8c-0.2,0.5-0.1,1.1-0.2,2
			c1.3-0.7,2.3-1.3,3.4-1.7c0.5-0.2,1.2-0.2,1.6,0c1.1,0.5,2.2,1.1,3.5,1.8c-0.2-1.3-0.3-2.3-0.6-3.3c-0.3-1.1-0.1-1.9,0.8-2.6
			c0.8-0.6,1.6-1.3,2.3-2c-0.1-0.1-0.1-0.3-0.2-0.4c-1.1-0.2-2.3-0.4-3.4-0.5c-0.8-0.1-1.3-0.4-1.6-1.2c-0.5-1.1-1-2.1-1.7-3.4
			c-0.7,1.3-1.2,2.3-1.7,3.4c-0.3,0.8-0.8,1.1-1.6,1.2C187.5,12.8,186.3,13,185.2,13.1z M261.2,8.1c-0.6,1.1-1.1,2-1.5,2.9
			c-0.4,1.1-1.1,1.7-2.4,1.7c-1,0-1.9,0.3-3.2,0.5c1.1,1.1,2,1.9,2.8,2.8c0.3,0.4,0.5,1,0.5,1.4c-0.1,1.2-0.4,2.4-0.6,3.9
			c1.3-0.7,2.3-1.1,3.2-1.7c0.8-0.5,1.4-0.5,2.2,0c0.9,0.6,2,1,3.2,1.6c-0.2-1.4-0.3-2.5-0.6-3.5c-0.3-1,0-1.6,0.8-2.2
			c0.8-0.7,1.6-1.5,2.6-2.5c-1.5-0.2-2.5-0.4-3.7-0.5c-0.8-0.1-1.4-0.4-1.7-1.2C262.4,10.4,261.8,9.4,261.2,8.1z M220.1,9.3
			c-3.3,0-5.5,2.5-5.5,6.2c0,3.6,2.1,6,5.3,6c3.4,0,5.5-2.4,5.5-6.2C225.3,11.7,223.3,9.3,220.1,9.3z M205.7,15.9c1.8,0,3.5,0,5.3,0
			c0,1.8,0,3.5,0,5.2c0.6,0,1.1,0,1.6,0c0-3.9,0-7.7,0-11.5c-0.6,0-1,0-1.6,0c0,1.6,0,3.1,0,4.6c-1.8,0-3.4,0-5.3,0
			c0-1.6,0-3.1,0-4.6C204,9.5,204,9.5,204,11c0,1.7,0,3.4,0,5.2c0,1.6,0,3.3,0,5c0.6,0,1.1,0,1.7,0
			C205.7,19.4,205.7,17.7,205.7,15.9z M241.6,19.7c-1.6,0-3.2,0-4.8,0c0-1.4,0-2.7,0-4.1c1.5,0,2.9,0,4.4,0c0-0.5,0-0.8-0.1-1.3
			c-1.5,0-2.9,0-4.3,0c0-1.2,0-2.2,0-3.4c1.6,0,3.1,0,4.7,0c0-0.5,0-0.9-0.1-1.3c-2.1,0-4.2,0-6.3,0c0,3.9,0,7.7,0,11.5
			c2.2,0,4.4,0,6.5,0C241.6,20.6,241.6,20.3,241.6,19.7z M233.9,9.6c-2.9,0-5.7,0-8.6,0c0,0.5,0,0.9,0,1.4c1.1,0,2.2,0,3.4,0
			c0,3.4,0,6.7,0,10.1c0.6,0,1.1,0,1.7,0c0-3.4,0-6.7,0-10.1c1.2,0,2.3,0,3.5,0C233.9,10.5,233.9,10.1,233.9,9.6z M243.4,9.6
			c0,3.9,0,7.7,0,11.5c2.2,0,4.3,0,6.5,0c0.2-1.4,0.2-1.4-1-1.4c-1.2,0-2.5,0-3.9,0c0-3.5,0-6.8,0-10.1C244.4,9.6,244,9.6,243.4,9.6
			z"/>
		<path class="st0" d="M223.6,15.1c-0.2,2.1-0.6,3.9-2.5,4.7c-1.6,0.7-3.3,0-4.1-1.6c-0.9-1.7-0.9-3.5-0.2-5.2
			c0.6-1.4,1.6-2.3,3.1-2.3c1.5,0,2.6,0.8,3.1,2.2C223.3,13.7,223.5,14.5,223.6,15.1z"/>
	</g>
</g>
<g id="Layer_1">
</g>
</svg>
