<?xml version="1.0" encoding="utf-8"?>
<!-- Generator: Adobe Illustrator 22.0.0, SVG Export Plug-In . SVG Version: 6.00 Build 0)  -->
<svg version="1.1" xmlns="http://www.w3.org/2000/svg" xmlns:xlink="http://www.w3.org/1999/xlink" x="0px" y="0px"
	 viewBox="0 0 432 288" style="enable-background:new 0 0 432 288;" xml:space="preserve">
<style type="text/css">
	.st0{fill:#FFFFFF;}
</style>
<g id="Layer_2">
	<g>
		<path class="st0" d="M171.2,280c-1.7-1-3.5-1.9-5-3.1c-3.8-3-5.6-7.1-5.6-11.9c0-39.7,0-79.4,0-119.1c0-2.1,0.4-3.2,2.9-3.5
			c11.6-1.2,22-6,31.6-12.3c4.7-3,7.3-9.9,3.3-15.7c-3.2-4.6-9.9-6.3-15.7-3.5c-5.5,2.6-11,5.1-16.6,7.5c-1.5,0.6-3.2,0.6-5.7,1
			c0-4.3,0-8.1,0-11.9c-0.4,0-0.9-0.1-1.3-0.1c-0.8,3.2-1.9,6.3-2.3,9.5c-0.3,2.9,1.3,5.3,4.5,4.5c5.3-1.4,10.5-3.2,15.6-5.2
			c2.7-1,5.1-2.6,7.6-4c4.5-2.3,9.8-0.9,12.5,3.5c2.3,3.7,1.1,10-2.9,12.4c-10.2,6.3-20.8,11.7-33.1,11.9
			c-13.5,0.2-22.5-8.3-23-21.8c-0.5-16,10.7-35.5,26.9-40.9c1.7-0.6,3.5-0.8,5.3-0.8c14.5-0.1,29,0,43.5-0.1c4.1,0,6.9,1.7,9.6,4.7
			c3.4,3.8,7.2,7.3,11.4,10.1c6.1,4.1,12.4,2.5,18-1.5c3-2.1,5.7-4.7,9.2-7.5c-2.2,7.6-4.2,14.4-6.4,21.2c-0.8,2.4-1.5,6-3.2,6.7
			c-3.9,1.5-8.5,2.3-12.6,1.9c-5.3-0.5-10.4-2.6-15.8-4c0,1.2,0,2.6,0,4c0,48.6-0.1,97.3,0.1,145.9c0.1,9.5-1.3,17.6-10.8,22
			c-2.7,0-5.3,0-8,0c-0.1-0.2-0.1-0.6-0.2-0.6c-8.3-3.1-10.3-9.6-10.3-17.8c0.2-27.7,0.1-55.5,0.1-83.2c0-2.5,0-4.7-3.5-4.3
			c-3,0.3-2,2.6-2.1,4.1c-0.1,29.1-0.1,58.1,0,87.2c0,3.9-1.1,7.2-3.7,9.8c-2,1.9-4.7,3.2-7.1,4.7C176,280,173.6,280,171.2,280z"/>
		<path class="st0" d="M290.7,4c2.5,1.3,4.8,2.7,2.6,5.9c25.5,11,45,27.6,56.5,53.8c-4.6-1.3-8.2-2.7-12-3.4
			c-8.5-1.6-17-3.4-25.5-4.1c-9.8-0.9-19.7-0.6-29.6-1c-2.6-0.1-3.7,1.1-4.3,3.3c-3.9,13.1-7.9,26.1-11.8,39.2
			c-4.9,16.2-9.7,32.4-14.6,48.5c-0.4,1.5-1.1,2.8-1.8,4.4c-2-0.5-3.6-1-5.8-1.6c0.6-2.5,1.1-5.1,1.8-7.5
			c7.7-25.2,15.5-50.3,23.2-75.5c6.2-20.2,12.2-40.3,18.3-60.5c0.1-0.4,0.1-0.9,0.1-1.4C288.8,4,289.8,4,290.7,4z"/>
		<path class="st0" d="M192.2,66.2c-14.5,0.3-26-11.1-26.5-25.7c-0.5-14.6,12-26.9,26.9-26.8c13.7,0.1,26,11.6,25.7,26.6
			C217.9,55,206.9,66.2,192.2,66.2z"/>
		<path class="st0" d="M275.4,76.3c5.2,2.5,7.1,8.9,4.1,13c-3.1,4.1-6.7,7.9-10.1,11.8c-0.4-0.2-0.8-0.4-1.2-0.6
			C270.5,92.5,272.9,84.6,275.4,76.3z"/>
	</g>
</g>
<g id="Layer_1">
</g>
</svg>
