<?xml version="1.0" encoding="utf-8"?>
<!-- Generator: Adobe Illustrator 22.0.0, SVG Export Plug-In . SVG Version: 6.00 Build 0)  -->
<svg version="1.1" xmlns="http://www.w3.org/2000/svg" xmlns:xlink="http://www.w3.org/1999/xlink" x="0px" y="0px"
	 viewBox="0 0 432 288" style="enable-background:new 0 0 432 288;" xml:space="preserve">
<style type="text/css">
	.st0{fill:#FFFFFF;}
</style>
<g id="Layer_2">
	<g>
		<path class="st0" d="M296.6,41.4c11.3,2,16.8,8.6,16.8,19.9c0,66.5-0.1,133,0.1,199.4c0,13.1-9.8,19.9-19.7,19.8
			c-57.7-0.3-115.5-0.3-173.2,0c-10.6,0-19.6-7.8-19.6-19.5c0.2-67.9,0.1-135.8,0.2-203.7c0-4.7,0.4-9.5,1.4-14.2
			c1.3-6.4,5.4-10.2,12-11.3c16.4-2.6,32.8-5.3,49.2-7.8c18.3-2.8,36.7-5.5,55-8.2c18.5-2.7,37.1-5.5,55.6-8.1
			c2.9-0.4,5.9-0.4,8.8,0.1c8.6,1.5,13.2,7.4,13.5,16.9C296.7,30.3,296.6,35.7,296.6,41.4z M210.1,218c3.5-0.3,7.1-0.4,10.6-0.8
			c36.7-4.7,61.2-42,51.2-77.8c-9-32.3-41.2-51.8-74.9-45.4c-35.4,6.7-58,42.3-49.2,77.1C154.4,197,178.4,218.8,210.1,218z
			 M150.9,41.2c0,0.1,0,0.2,0,0.2c42.9,0,85.7,0,128.7,0c0-4.8,0.2-9.3-0.1-13.8c-0.2-3.3-1.9-4.5-5.2-4
			c-12.8,1.9-25.6,3.8-38.5,5.6c-18,2.6-36.1,5.1-54.2,7.6C171.5,38.2,161.2,39.7,150.9,41.2z"/>
		<path class="st0" d="M193.3,152.9c-1-12.7,6.8-33,16.8-43.7c10.6,12.6,16.1,27.1,17,43.7C215.7,152.9,204.5,152.9,193.3,152.9z"/>
		<path class="st0" d="M226.2,167.7c-2.2,13.2-7.6,24.6-16.2,34.9c-8.6-10.2-13.8-21.7-16.2-34.9
			C204.6,167.7,215.1,167.7,226.2,167.7z"/>
		<path class="st0" d="M259.3,152.9c-5.8,0-11.5,0-17.7,0c-0.6-14.7-4.6-28.5-12.2-41.5C244.7,116.5,258.6,134.1,259.3,152.9z"/>
		<path class="st0" d="M161,152.9c-0.7-15.9,14.2-37,29.7-41.5c-7.6,12.9-11.5,26.6-12.2,41.5C172.7,152.9,166.9,152.9,161,152.9z"
			/>
		<path class="st0" d="M162.3,167.5c5.7,0,11.1,0,16.7,0c1.7,11.6,5.4,22.4,11.4,32.6C178.3,197.1,163.9,180.4,162.3,167.5z"/>
		<path class="st0" d="M229.5,200.3c5.8-10.1,9.6-20.4,11.3-31.4c0.1-0.6,1.2-1.5,1.8-1.5c5-0.1,9.9-0.1,14.9-0.1
			C258.3,177.6,242.7,196.1,229.5,200.3z"/>
	</g>
</g>
<g id="Layer_1">
</g>
</svg>
